<svg width="1217" height="89" viewBox="0 0 1217 89" fill="none" xmlns="http://www.w3.org/2000/svg">
<rect width="1217" height="89" fill="white"/>
<rect y="43" width="914" height="46" fill="#D4FFB2"/>
<path d="M48.54 65.225L62.345 17.98H66.91L53.105 65.225H48.54ZM63.4179 65.225L77.2229 17.98H81.7879L67.9829 65.225H63.4179ZM101.988 60V21.5H125.803V25.295H106.608V38.715H124.153V42.455H106.608V56.205H125.803V60H101.988ZM144.638 60L130.173 21.5H135.178L147.333 55.105L159.598 21.5H164.493L150.028 60H144.638ZM169.771 60V21.5H174.391V60H169.771ZM182.554 60V21.5H194.379C201.163 21.5 206.149 23.2233 209.339 26.67C212.566 30.1167 214.179 34.8467 214.179 40.86C214.179 46.7633 212.566 51.4383 209.339 54.885C206.149 58.295 201.163 60 194.379 60H182.554ZM187.174 56.15H194.269C198.009 56.15 200.979 55.545 203.179 54.335C205.416 53.0883 207.011 51.3283 207.964 49.055C208.918 46.745 209.394 44.0133 209.394 40.86C209.394 37.6333 208.918 34.865 207.964 32.555C207.011 30.245 205.416 28.4667 203.179 27.22C200.979 25.9733 198.009 25.35 194.269 25.35H187.174V56.15ZM220.85 60V21.5H244.665V25.295H225.47V38.715H243.015V42.455H225.47V56.205H244.665V60H220.85ZM251.895 60V21.5H256.515L277.03 52.355V21.5H281.65V60H277.03L256.515 29.145V60H251.895ZM306.7 60.66C302.923 60.66 299.66 59.835 296.91 58.185C294.197 56.4983 292.088 54.17 290.585 51.2C289.082 48.1933 288.33 44.71 288.33 40.75C288.33 36.8267 289.082 33.38 290.585 30.41C292.088 27.4033 294.197 25.0567 296.91 23.37C299.66 21.6833 302.923 20.84 306.7 20.84C311.1 20.84 314.675 21.9033 317.425 24.03C320.212 26.12 321.99 29.0533 322.76 32.83H317.645C317.058 30.4467 315.848 28.54 314.015 27.11C312.218 25.6433 309.78 24.91 306.7 24.91C303.95 24.91 301.548 25.5517 299.495 26.835C297.442 28.0817 295.847 29.8967 294.71 32.28C293.61 34.6267 293.06 37.45 293.06 40.75C293.06 44.05 293.61 46.8917 294.71 49.275C295.847 51.6217 297.442 53.4367 299.495 54.72C301.548 55.9667 303.95 56.59 306.7 56.59C309.78 56.59 312.218 55.8933 314.015 54.5C315.848 53.07 317.058 51.1817 317.645 48.835H322.76C321.99 52.5383 320.212 55.435 317.425 57.525C314.675 59.615 311.1 60.66 306.7 60.66ZM329.4 60V21.5H353.215V25.295H334.02V38.715H351.565V42.455H334.02V56.205H353.215V60H329.4Z" fill="black"/>
</svg>
