<svg width="1217" height="89" viewBox="0 0 1217 89" fill="none" xmlns="http://www.w3.org/2000/svg">
<rect width="1217" height="89" fill="white"/>
<rect y="43" width="914" height="46" fill="#D4FFB2"/>
<path d="M48.54 65.225L62.345 17.98H66.91L53.105 65.225H48.54ZM63.4179 65.225L77.2229 17.98H81.7879L67.9829 65.225H63.4179ZM101.988 60V21.5H106.608V60H101.988ZM114.771 60V21.5H119.391L139.906 52.355V21.5H144.526V60H139.906L119.391 29.145V60H114.771ZM164.956 60.66C162.133 60.66 159.676 60.1467 157.586 59.12C155.496 58.0933 153.883 56.6633 152.746 54.83C151.609 52.9967 151.041 50.87 151.041 48.45H155.881C155.881 49.9533 156.229 51.3467 156.926 52.63C157.623 53.8767 158.631 54.885 159.951 55.655C161.308 56.3883 162.976 56.755 164.956 56.755C167.559 56.755 169.576 56.1317 171.006 54.885C172.436 53.6383 173.151 52.08 173.151 50.21C173.151 48.67 172.821 47.4417 172.161 46.525C171.501 45.5717 170.603 44.8017 169.466 44.215C168.366 43.6283 167.083 43.115 165.616 42.675C164.186 42.235 162.683 41.74 161.106 41.19C158.136 40.1633 155.936 38.8983 154.506 37.395C153.076 35.855 152.361 33.8567 152.361 31.4C152.324 29.3467 152.801 27.5317 153.791 25.955C154.781 24.3417 156.174 23.095 157.971 22.215C159.804 21.2983 161.968 20.84 164.461 20.84C166.918 20.84 169.044 21.2983 170.841 22.215C172.674 23.1317 174.086 24.3967 175.076 26.01C176.103 27.6233 176.634 29.4567 176.671 31.51H171.831C171.831 30.4467 171.556 29.4017 171.006 28.375C170.456 27.3117 169.613 26.45 168.476 25.79C167.376 25.13 165.983 24.8 164.296 24.8C162.206 24.7633 160.483 25.295 159.126 26.395C157.806 27.495 157.146 29.0167 157.146 30.96C157.146 32.61 157.604 33.875 158.521 34.755C159.474 35.635 160.794 36.3683 162.481 36.955C164.168 37.505 166.111 38.1467 168.311 38.88C170.144 39.54 171.794 40.31 173.261 41.19C174.728 42.07 175.864 43.2067 176.671 44.6C177.514 45.9933 177.936 47.7717 177.936 49.935C177.936 51.7683 177.459 53.51 176.506 55.16C175.553 56.7733 174.104 58.0933 172.161 59.12C170.254 60.1467 167.853 60.66 164.956 60.66ZM184.488 60V21.5H189.108V60H184.488ZM213.826 60.66C210.233 60.66 207.08 59.835 204.366 58.185C201.653 56.4983 199.545 54.17 198.041 51.2C196.538 48.1933 195.786 44.7283 195.786 40.805C195.786 36.8817 196.538 33.4167 198.041 30.41C199.581 27.4033 201.745 25.0567 204.531 23.37C207.355 21.6833 210.673 20.84 214.486 20.84C218.813 20.84 222.406 21.885 225.266 23.975C228.163 26.065 230.033 28.9433 230.876 32.61H225.541C225.028 30.3 223.8 28.4667 221.856 27.11C219.95 25.7533 217.493 25.075 214.486 25.075C211.663 25.075 209.206 25.7167 207.116 27C205.026 28.2467 203.395 30.0433 202.221 32.39C201.085 34.7367 200.516 37.5417 200.516 40.805C200.516 44.0683 201.085 46.8733 202.221 49.22C203.358 51.5667 204.935 53.3817 206.951 54.665C208.968 55.9117 211.315 56.535 213.991 56.535C218.098 56.535 221.196 55.3433 223.286 52.96C225.376 50.54 226.568 47.24 226.861 43.06H215.751V39.43H231.591V60H227.356L226.971 53.675C225.578 55.9117 223.873 57.635 221.856 58.845C219.84 60.055 217.163 60.66 213.826 60.66ZM238.897 60V21.5H243.517V38.495H263.482V21.5H268.102V60H263.482V42.29H243.517V60H238.897ZM285.246 60V25.295H273.751V21.5H301.361V25.295H289.866V60H285.246ZM318.355 60.66C315.531 60.66 313.075 60.1467 310.985 59.12C308.895 58.0933 307.281 56.6633 306.145 54.83C305.008 52.9967 304.44 50.87 304.44 48.45H309.28C309.28 49.9533 309.628 51.3467 310.325 52.63C311.021 53.8767 312.03 54.885 313.35 55.655C314.706 56.3883 316.375 56.755 318.355 56.755C320.958 56.755 322.975 56.1317 324.405 54.885C325.835 53.6383 326.55 52.08 326.55 50.21C326.55 48.67 326.22 47.4417 325.56 46.525C324.9 45.5717 324.001 44.8017 322.865 44.215C321.765 43.6283 320.481 43.115 319.015 42.675C317.585 42.235 316.081 41.74 314.505 41.19C311.535 40.1633 309.335 38.8983 307.905 37.395C306.475 35.855 305.76 33.8567 305.76 31.4C305.723 29.3467 306.2 27.5317 307.19 25.955C308.18 24.3417 309.573 23.095 311.37 22.215C313.203 21.2983 315.366 20.84 317.86 20.84C320.316 20.84 322.443 21.2983 324.24 22.215C326.073 23.1317 327.485 24.3967 328.475 26.01C329.501 27.6233 330.033 29.4567 330.07 31.51H325.23C325.23 30.4467 324.955 29.4017 324.405 28.375C323.855 27.3117 323.011 26.45 321.875 25.79C320.775 25.13 319.381 24.8 317.695 24.8C315.605 24.7633 313.881 25.295 312.525 26.395C311.205 27.495 310.545 29.0167 310.545 30.96C310.545 32.61 311.003 33.875 311.92 34.755C312.873 35.635 314.193 36.3683 315.88 36.955C317.566 37.505 319.51 38.1467 321.71 38.88C323.543 39.54 325.193 40.31 326.66 41.19C328.126 42.07 329.263 43.2067 330.07 44.6C330.913 45.9933 331.335 47.7717 331.335 49.935C331.335 51.7683 330.858 53.51 329.905 55.16C328.951 56.7733 327.503 58.0933 325.56 59.12C323.653 60.1467 321.251 60.66 318.355 60.66Z" fill="black"/>
</svg>
