<svg width="1217" height="89" viewBox="0 0 1217 89" fill="none" xmlns="http://www.w3.org/2000/svg">
<rect width="1217" height="89" fill="white"/>
<rect y="43" width="914" height="46" fill="#D4FFB2"/>
<path d="M48.54 65.225L62.345 17.98H66.91L53.105 65.225H48.54ZM63.4179 65.225L77.2229 17.98H81.7879L67.9829 65.225H63.4179ZM100.538 60V21.5H113.188C116.194 21.5 118.669 21.995 120.613 22.985C122.556 23.975 123.986 25.3133 124.903 27C125.856 28.6867 126.333 30.5933 126.333 32.72C126.333 34.81 125.874 36.6983 124.958 38.385C124.041 40.0717 122.611 41.4283 120.668 42.455C118.724 43.445 116.231 43.94 113.188 43.94H105.158V60H100.538ZM105.158 40.035H113.078C116.158 40.035 118.339 39.3933 119.623 38.11C120.943 36.79 121.603 34.9933 121.603 32.72C121.603 30.41 120.943 28.6133 119.623 27.33C118.339 26.01 116.158 25.35 113.078 25.35H105.158V40.035ZM132.388 60V21.5H144.818C147.825 21.5 150.282 21.995 152.188 22.985C154.095 23.975 155.507 25.3317 156.423 27.055C157.34 28.7783 157.798 30.685 157.798 32.775C157.798 35.195 157.138 37.3767 155.818 39.32C154.535 41.2633 152.518 42.6383 149.768 43.445L158.183 60H152.738L144.928 44.105H144.598H137.008V60H132.388ZM137.008 40.475H144.488C147.458 40.475 149.622 39.76 150.978 38.33C152.335 36.9 153.013 35.0667 153.013 32.83C153.013 30.5567 152.335 28.76 150.978 27.44C149.658 26.0833 147.477 25.405 144.433 25.405H137.008V40.475ZM182.481 60.66C178.704 60.66 175.386 59.835 172.526 58.185C169.703 56.4983 167.484 54.1517 165.871 51.145C164.294 48.1383 163.506 44.6733 163.506 40.75C163.506 36.8267 164.294 33.38 165.871 30.41C167.484 27.4033 169.703 25.0567 172.526 23.37C175.386 21.6833 178.704 20.84 182.481 20.84C186.294 20.84 189.613 21.6833 192.436 23.37C195.296 25.0567 197.514 27.4033 199.091 30.41C200.668 33.38 201.456 36.8267 201.456 40.75C201.456 44.6733 200.668 48.1383 199.091 51.145C197.514 54.1517 195.296 56.4983 192.436 58.185C189.613 59.835 186.294 60.66 182.481 60.66ZM182.481 56.59C185.304 56.59 187.779 55.9667 189.906 54.72C192.069 53.4367 193.738 51.6217 194.911 49.275C196.121 46.8917 196.726 44.05 196.726 40.75C196.726 37.45 196.121 34.6267 194.911 32.28C193.738 29.9333 192.069 28.1367 189.906 26.89C187.779 25.6067 185.304 24.965 182.481 24.965C179.658 24.965 177.164 25.6067 175.001 26.89C172.874 28.1367 171.206 29.9333 169.996 32.28C168.823 34.6267 168.236 37.45 168.236 40.75C168.236 44.05 168.823 46.8917 169.996 49.275C171.206 51.6217 172.874 53.4367 175.001 54.72C177.164 55.9667 179.658 56.59 182.481 56.59ZM208.121 60V21.5H221.651C224.364 21.5 226.601 21.94 228.361 22.82C230.157 23.6633 231.496 24.8367 232.376 26.34C233.256 27.8067 233.696 29.4567 233.696 31.29C233.696 33.7833 233.017 35.745 231.661 37.175C230.341 38.605 228.746 39.595 226.876 40.145C228.306 40.4017 229.607 40.97 230.781 41.85C231.954 42.73 232.871 43.83 233.531 45.15C234.227 46.47 234.576 47.9183 234.576 49.495C234.576 51.4383 234.099 53.2167 233.146 54.83C232.192 56.4067 230.781 57.6717 228.911 58.625C227.041 59.5417 224.767 60 222.091 60H208.121ZM212.741 38.33H221.321C223.777 38.33 225.666 37.7617 226.986 36.625C228.306 35.4517 228.966 33.8383 228.966 31.785C228.966 29.8417 228.306 28.2833 226.986 27.11C225.702 25.9367 223.759 25.35 221.156 25.35H212.741V38.33ZM212.741 56.15H221.596C224.236 56.15 226.271 55.545 227.701 54.335C229.131 53.0883 229.846 51.365 229.846 49.165C229.846 47.0017 229.094 45.2783 227.591 43.995C226.087 42.675 224.052 42.015 221.486 42.015H212.741V56.15ZM241.207 60V21.5H245.827V56.315H263.757V60H241.207ZM270.103 60V21.5H293.918V25.295H274.723V38.715H292.268V42.455H274.723V56.205H293.918V60H270.103ZM301.148 60V21.5H306.538L320.398 48.34L334.148 21.5H339.593V60H334.973V29.75L322.103 54.5H318.638L305.768 29.805V60H301.148Z" fill="black"/>
</svg>
