<svg width="1217" height="89" viewBox="0 0 1217 89" fill="none" xmlns="http://www.w3.org/2000/svg">
<rect width="1217" height="89" fill="white"/>
<rect y="43" width="914" height="46" fill="#D4FFB2"/>
<path d="M48.54 65.225L62.345 17.98H66.91L53.105 65.225H48.54ZM63.4179 65.225L77.2229 17.98H81.7879L67.9829 65.225H63.4179ZM100.538 60V21.5H113.188C116.194 21.5 118.669 21.995 120.613 22.985C122.556 23.975 123.986 25.3133 124.903 27C125.856 28.6867 126.333 30.5933 126.333 32.72C126.333 34.81 125.874 36.6983 124.958 38.385C124.041 40.0717 122.611 41.4283 120.668 42.455C118.724 43.445 116.231 43.94 113.188 43.94H105.158V60H100.538ZM105.158 40.035H113.078C116.158 40.035 118.339 39.3933 119.623 38.11C120.943 36.79 121.603 34.9933 121.603 32.72C121.603 30.41 120.943 28.6133 119.623 27.33C118.339 26.01 116.158 25.35 113.078 25.35H105.158V40.035ZM132.388 60V21.5H144.818C147.825 21.5 150.282 21.995 152.188 22.985C154.095 23.975 155.507 25.3317 156.423 27.055C157.34 28.7783 157.798 30.685 157.798 32.775C157.798 35.195 157.138 37.3767 155.818 39.32C154.535 41.2633 152.518 42.6383 149.768 43.445L158.183 60H152.738L144.928 44.105H144.598H137.008V60H132.388ZM137.008 40.475H144.488C147.458 40.475 149.622 39.76 150.978 38.33C152.335 36.9 153.013 35.0667 153.013 32.83C153.013 30.5567 152.335 28.76 150.978 27.44C149.658 26.0833 147.477 25.405 144.433 25.405H137.008V40.475ZM182.481 60.66C178.704 60.66 175.386 59.835 172.526 58.185C169.703 56.4983 167.484 54.1517 165.871 51.145C164.294 48.1383 163.506 44.6733 163.506 40.75C163.506 36.8267 164.294 33.38 165.871 30.41C167.484 27.4033 169.703 25.0567 172.526 23.37C175.386 21.6833 178.704 20.84 182.481 20.84C186.294 20.84 189.613 21.6833 192.436 23.37C195.296 25.0567 197.514 27.4033 199.091 30.41C200.668 33.38 201.456 36.8267 201.456 40.75C201.456 44.6733 200.668 48.1383 199.091 51.145C197.514 54.1517 195.296 56.4983 192.436 58.185C189.613 59.835 186.294 60.66 182.481 60.66ZM182.481 56.59C185.304 56.59 187.779 55.9667 189.906 54.72C192.069 53.4367 193.738 51.6217 194.911 49.275C196.121 46.8917 196.726 44.05 196.726 40.75C196.726 37.45 196.121 34.6267 194.911 32.28C193.738 29.9333 192.069 28.1367 189.906 26.89C187.779 25.6067 185.304 24.965 182.481 24.965C179.658 24.965 177.164 25.6067 175.001 26.89C172.874 28.1367 171.206 29.9333 169.996 32.28C168.823 34.6267 168.236 37.45 168.236 40.75C168.236 44.05 168.823 46.8917 169.996 49.275C171.206 51.6217 172.874 53.4367 175.001 54.72C177.164 55.9667 179.658 56.59 182.481 56.59ZM225.006 60.66C221.229 60.66 217.966 59.835 215.216 58.185C212.502 56.4983 210.394 54.17 208.891 51.2C207.387 48.1933 206.636 44.71 206.636 40.75C206.636 36.8267 207.387 33.38 208.891 30.41C210.394 27.4033 212.502 25.0567 215.216 23.37C217.966 21.6833 221.229 20.84 225.006 20.84C229.406 20.84 232.981 21.9033 235.731 24.03C238.517 26.12 240.296 29.0533 241.066 32.83H235.951C235.364 30.4467 234.154 28.54 232.321 27.11C230.524 25.6433 228.086 24.91 225.006 24.91C222.256 24.91 219.854 25.5517 217.801 26.835C215.747 28.0817 214.152 29.8967 213.016 32.28C211.916 34.6267 211.366 37.45 211.366 40.75C211.366 44.05 211.916 46.8917 213.016 49.275C214.152 51.6217 215.747 53.4367 217.801 54.72C219.854 55.9667 222.256 56.59 225.006 56.59C228.086 56.59 230.524 55.8933 232.321 54.5C234.154 53.07 235.364 51.1817 235.951 48.835H241.066C240.296 52.5383 238.517 55.435 235.731 57.525C232.981 59.615 229.406 60.66 225.006 60.66ZM247.706 60V21.5H271.521V25.295H252.326V38.715H269.871V42.455H252.326V56.205H271.521V60H247.706ZM291.016 60.66C288.192 60.66 285.736 60.1467 283.646 59.12C281.556 58.0933 279.942 56.6633 278.806 54.83C277.669 52.9967 277.101 50.87 277.101 48.45H281.941C281.941 49.9533 282.289 51.3467 282.986 52.63C283.682 53.8767 284.691 54.885 286.011 55.655C287.367 56.3883 289.036 56.755 291.016 56.755C293.619 56.755 295.636 56.1317 297.066 54.885C298.496 53.6383 299.211 52.08 299.211 50.21C299.211 48.67 298.881 47.4417 298.221 46.525C297.561 45.5717 296.662 44.8017 295.526 44.215C294.426 43.6283 293.142 43.115 291.676 42.675C290.246 42.235 288.742 41.74 287.166 41.19C284.196 40.1633 281.996 38.8983 280.566 37.395C279.136 35.855 278.421 33.8567 278.421 31.4C278.384 29.3467 278.861 27.5317 279.851 25.955C280.841 24.3417 282.234 23.095 284.031 22.215C285.864 21.2983 288.027 20.84 290.521 20.84C292.977 20.84 295.104 21.2983 296.901 22.215C298.734 23.1317 300.146 24.3967 301.136 26.01C302.162 27.6233 302.694 29.4567 302.731 31.51H297.891C297.891 30.4467 297.616 29.4017 297.066 28.375C296.516 27.3117 295.672 26.45 294.536 25.79C293.436 25.13 292.042 24.8 290.356 24.8C288.266 24.7633 286.542 25.295 285.186 26.395C283.866 27.495 283.206 29.0167 283.206 30.96C283.206 32.61 283.664 33.875 284.581 34.755C285.534 35.635 286.854 36.3683 288.541 36.955C290.227 37.505 292.171 38.1467 294.371 38.88C296.204 39.54 297.854 40.31 299.321 41.19C300.787 42.07 301.924 43.2067 302.731 44.6C303.574 45.9933 303.996 47.7717 303.996 49.935C303.996 51.7683 303.519 53.51 302.566 55.16C301.612 56.7733 300.164 58.0933 298.221 59.12C296.314 60.1467 293.912 60.66 291.016 60.66ZM322.813 60.66C319.989 60.66 317.533 60.1467 315.443 59.12C313.353 58.0933 311.739 56.6633 310.603 54.83C309.466 52.9967 308.898 50.87 308.898 48.45H313.738C313.738 49.9533 314.086 51.3467 314.783 52.63C315.479 53.8767 316.488 54.885 317.808 55.655C319.164 56.3883 320.833 56.755 322.813 56.755C325.416 56.755 327.433 56.1317 328.863 54.885C330.293 53.6383 331.008 52.08 331.008 50.21C331.008 48.67 330.678 47.4417 330.018 46.525C329.358 45.5717 328.459 44.8017 327.323 44.215C326.223 43.6283 324.939 43.115 323.473 42.675C322.043 42.235 320.539 41.74 318.963 41.19C315.993 40.1633 313.793 38.8983 312.363 37.395C310.933 35.855 310.218 33.8567 310.218 31.4C310.181 29.3467 310.658 27.5317 311.648 25.955C312.638 24.3417 314.031 23.095 315.828 22.215C317.661 21.2983 319.824 20.84 322.318 20.84C324.774 20.84 326.901 21.2983 328.698 22.215C330.531 23.1317 331.943 24.3967 332.933 26.01C333.959 27.6233 334.491 29.4567 334.528 31.51H329.688C329.688 30.4467 329.413 29.4017 328.863 28.375C328.313 27.3117 327.469 26.45 326.333 25.79C325.233 25.13 323.839 24.8 322.153 24.8C320.063 24.7633 318.339 25.295 316.983 26.395C315.663 27.495 315.003 29.0167 315.003 30.96C315.003 32.61 315.461 33.875 316.378 34.755C317.331 35.635 318.651 36.3683 320.338 36.955C322.024 37.505 323.968 38.1467 326.168 38.88C328.001 39.54 329.651 40.31 331.118 41.19C332.584 42.07 333.721 43.2067 334.528 44.6C335.371 45.9933 335.793 47.7717 335.793 49.935C335.793 51.7683 335.316 53.51 334.363 55.16C333.409 56.7733 331.961 58.0933 330.018 59.12C328.111 60.1467 325.709 60.66 322.813 60.66ZM368.285 60.66C365.645 60.66 363.317 60.1833 361.3 59.23C359.32 58.24 357.762 56.8833 356.625 55.16C355.525 53.4 354.975 51.3283 354.975 48.945C354.975 46.3417 355.727 44.0317 357.23 42.015C358.77 39.9617 360.988 38.3483 363.885 37.175C362.638 35.8183 361.74 34.535 361.19 33.325C360.64 32.0783 360.365 30.74 360.365 29.31C360.365 26.8533 361.227 24.8367 362.95 23.26C364.71 21.6467 367.112 20.84 370.155 20.84C372.135 20.84 373.858 21.225 375.325 21.995C376.792 22.7283 377.928 23.755 378.735 25.075C379.542 26.395 379.908 27.8983 379.835 29.585H375.27C375.307 27.935 374.793 26.6883 373.73 25.845C372.703 25.0017 371.512 24.58 370.155 24.58C368.505 24.58 367.222 25.02 366.305 25.9C365.388 26.78 364.93 27.8983 364.93 29.255C364.93 30.4283 365.242 31.565 365.865 32.665C366.525 33.765 367.497 34.9933 368.78 36.35L380.935 48.615C381.998 47.075 383.153 45.2233 384.4 43.06L386.105 40.09H391L388.58 44.38C386.967 47.2767 385.427 49.6967 383.96 51.64L392.265 60H386.435L381.32 54.83C379.377 56.92 377.36 58.4233 375.27 59.34C373.18 60.22 370.852 60.66 368.285 60.66ZM359.595 48.78C359.595 51.0533 360.402 52.9417 362.015 54.445C363.628 55.9483 365.737 56.7 368.34 56.7C370.283 56.7 372.043 56.3333 373.62 55.6C375.233 54.83 376.81 53.5833 378.35 51.86L366.69 40.035C364.27 40.9883 362.473 42.1983 361.3 43.665C360.163 45.1317 359.595 46.8367 359.595 48.78ZM411.739 60V21.5H417.129L430.989 48.34L444.739 21.5H450.184V60H445.564V29.75L432.694 54.5H429.229L416.359 29.805V60H411.739ZM458.306 60V21.5H482.121V25.295H462.926V38.715H480.471V42.455H462.926V56.205H482.121V60H458.306ZM498.371 60V25.295H486.876V21.5H514.486V25.295H502.991V60H498.371ZM520.128 60V21.5H524.748V38.495H544.713V21.5H549.333V60H544.713V42.29H524.748V60H520.128ZM574.947 60.66C571.17 60.66 567.852 59.835 564.992 58.185C562.168 56.4983 559.95 54.1517 558.337 51.145C556.76 48.1383 555.972 44.6733 555.972 40.75C555.972 36.8267 556.76 33.38 558.337 30.41C559.95 27.4033 562.168 25.0567 564.992 23.37C567.852 21.6833 571.17 20.84 574.947 20.84C578.76 20.84 582.078 21.6833 584.902 23.37C587.762 25.0567 589.98 27.4033 591.557 30.41C593.133 33.38 593.922 36.8267 593.922 40.75C593.922 44.6733 593.133 48.1383 591.557 51.145C589.98 54.1517 587.762 56.4983 584.902 58.185C582.078 59.835 578.76 60.66 574.947 60.66ZM574.947 56.59C577.77 56.59 580.245 55.9667 582.372 54.72C584.535 53.4367 586.203 51.6217 587.377 49.275C588.587 46.8917 589.192 44.05 589.192 40.75C589.192 37.45 588.587 34.6267 587.377 32.28C586.203 29.9333 584.535 28.1367 582.372 26.89C580.245 25.6067 577.77 24.965 574.947 24.965C572.123 24.965 569.63 25.6067 567.467 26.89C565.34 28.1367 563.672 29.9333 562.462 32.28C561.288 34.6267 560.702 37.45 560.702 40.75C560.702 44.05 561.288 46.8917 562.462 49.275C563.672 51.6217 565.34 53.4367 567.467 54.72C569.63 55.9667 572.123 56.59 574.947 56.59ZM600.587 60V21.5H612.412C619.195 21.5 624.182 23.2233 627.372 26.67C630.598 30.1167 632.212 34.8467 632.212 40.86C632.212 46.7633 630.598 51.4383 627.372 54.885C624.182 58.295 619.195 60 612.412 60H600.587ZM605.207 56.15H612.302C616.042 56.15 619.012 55.545 621.212 54.335C623.448 53.0883 625.043 51.3283 625.997 49.055C626.95 46.745 627.427 44.0133 627.427 40.86C627.427 37.6333 626.95 34.865 625.997 32.555C625.043 30.245 623.448 28.4667 621.212 27.22C619.012 25.9733 616.042 25.35 612.302 25.35H605.207V56.15ZM651.148 60.66C648.324 60.66 645.868 60.1467 643.778 59.12C641.688 58.0933 640.074 56.6633 638.938 54.83C637.801 52.9967 637.233 50.87 637.233 48.45H642.072C642.072 49.9533 642.421 51.3467 643.118 52.63C643.814 53.8767 644.823 54.885 646.143 55.655C647.499 56.3883 649.168 56.755 651.148 56.755C653.751 56.755 655.768 56.1317 657.198 54.885C658.628 53.6383 659.343 52.08 659.343 50.21C659.343 48.67 659.013 47.4417 658.353 46.525C657.693 45.5717 656.794 44.8017 655.658 44.215C654.558 43.6283 653.274 43.115 651.808 42.675C650.378 42.235 648.874 41.74 647.298 41.19C644.328 40.1633 642.128 38.8983 640.698 37.395C639.268 35.855 638.553 33.8567 638.553 31.4C638.516 29.3467 638.993 27.5317 639.983 25.955C640.973 24.3417 642.366 23.095 644.163 22.215C645.996 21.2983 648.159 20.84 650.653 20.84C653.109 20.84 655.236 21.2983 657.033 22.215C658.866 23.1317 660.278 24.3967 661.268 26.01C662.294 27.6233 662.826 29.4567 662.863 31.51H658.023C658.023 30.4467 657.748 29.4017 657.198 28.375C656.648 27.3117 655.804 26.45 654.668 25.79C653.568 25.13 652.174 24.8 650.488 24.8C648.398 24.7633 646.674 25.295 645.318 26.395C643.998 27.495 643.338 29.0167 643.338 30.96C643.338 32.61 643.796 33.875 644.713 34.755C645.666 35.635 646.986 36.3683 648.673 36.955C650.359 37.505 652.303 38.1467 654.503 38.88C656.336 39.54 657.986 40.31 659.453 41.19C660.919 42.07 662.056 43.2067 662.863 44.6C663.706 45.9933 664.128 47.7717 664.128 49.935C664.128 51.7683 663.651 53.51 662.698 55.16C661.744 56.7733 660.296 58.0933 658.353 59.12C656.446 60.1467 654.044 60.66 651.148 60.66Z" fill="black"/>
</svg>
