<svg width="1217" height="89" viewBox="0 0 1217 89" fill="none" xmlns="http://www.w3.org/2000/svg">
<rect width="1217" height="89" fill="white"/>
<rect y="43" width="914" height="46" fill="#D4FFB2"/>
<path d="M48.54 65.225L62.345 17.98H66.91L53.105 65.225H48.54ZM63.4179 65.225L77.2229 17.98H81.7879L67.9829 65.225H63.4179ZM114.253 60.66C111.43 60.66 108.973 60.1467 106.883 59.12C104.793 58.0933 103.18 56.6633 102.043 54.83C100.906 52.9967 100.338 50.87 100.338 48.45H105.178C105.178 49.9533 105.526 51.3467 106.223 52.63C106.92 53.8767 107.928 54.885 109.248 55.655C110.605 56.3883 112.273 56.755 114.253 56.755C116.856 56.755 118.873 56.1317 120.303 54.885C121.733 53.6383 122.448 52.08 122.448 50.21C122.448 48.67 122.118 47.4417 121.458 46.525C120.798 45.5717 119.9 44.8017 118.763 44.215C117.663 43.6283 116.38 43.115 114.913 42.675C113.483 42.235 111.98 41.74 110.403 41.19C107.433 40.1633 105.233 38.8983 103.803 37.395C102.373 35.855 101.658 33.8567 101.658 31.4C101.621 29.3467 102.098 27.5317 103.088 25.955C104.078 24.3417 105.471 23.095 107.268 22.215C109.101 21.2983 111.265 20.84 113.758 20.84C116.215 20.84 118.341 21.2983 120.138 22.215C121.971 23.1317 123.383 24.3967 124.373 26.01C125.4 27.6233 125.931 29.4567 125.968 31.51H121.128C121.128 30.4467 120.853 29.4017 120.303 28.375C119.753 27.3117 118.91 26.45 117.773 25.79C116.673 25.13 115.28 24.8 113.593 24.8C111.503 24.7633 109.78 25.295 108.423 26.395C107.103 27.495 106.443 29.0167 106.443 30.96C106.443 32.61 106.901 33.875 107.818 34.755C108.771 35.635 110.091 36.3683 111.778 36.955C113.465 37.505 115.408 38.1467 117.608 38.88C119.441 39.54 121.091 40.31 122.558 41.19C124.025 42.07 125.161 43.2067 125.968 44.6C126.811 45.9933 127.233 47.7717 127.233 49.935C127.233 51.7683 126.756 53.51 125.803 55.16C124.85 56.7733 123.401 58.0933 121.458 59.12C119.551 60.1467 117.15 60.66 114.253 60.66ZM151.275 60.66C147.498 60.66 144.18 59.835 141.32 58.185C138.497 56.4983 136.278 54.1517 134.665 51.145C133.088 48.1383 132.3 44.6733 132.3 40.75C132.3 36.8267 133.088 33.38 134.665 30.41C136.278 27.4033 138.497 25.0567 141.32 23.37C144.18 21.6833 147.498 20.84 151.275 20.84C155.088 20.84 158.407 21.6833 161.23 23.37C164.09 25.0567 166.308 27.4033 167.885 30.41C169.462 33.38 170.25 36.8267 170.25 40.75C170.25 44.6733 169.462 48.1383 167.885 51.145C166.308 54.1517 164.09 56.4983 161.23 58.185C158.407 59.835 155.088 60.66 151.275 60.66ZM151.275 56.59C154.098 56.59 156.573 55.9667 158.7 54.72C160.863 53.4367 162.532 51.6217 163.705 49.275C164.915 46.8917 165.52 44.05 165.52 40.75C165.52 37.45 164.915 34.6267 163.705 32.28C162.532 29.9333 160.863 28.1367 158.7 26.89C156.573 25.6067 154.098 24.965 151.275 24.965C148.452 24.965 145.958 25.6067 143.795 26.89C141.668 28.1367 140 29.9333 138.79 32.28C137.617 34.6267 137.03 37.45 137.03 40.75C137.03 44.05 137.617 46.8917 138.79 49.275C140 51.6217 141.668 53.4367 143.795 54.72C145.958 55.9667 148.452 56.59 151.275 56.59ZM176.915 60V21.5H181.535V56.315H199.465V60H176.915ZM218.061 60.66C215.421 60.66 213.02 60.1467 210.856 59.12C208.73 58.0567 207.025 56.425 205.741 54.225C204.458 52.025 203.816 49.22 203.816 45.81V21.5H208.436V45.865C208.436 49.605 209.335 52.3183 211.131 54.005C212.928 55.6917 215.275 56.535 218.171 56.535C221.068 56.535 223.396 55.6917 225.156 54.005C226.916 52.3183 227.796 49.605 227.796 45.865V21.5H232.416V45.81C232.416 49.22 231.775 52.025 230.491 54.225C229.208 56.425 227.485 58.0567 225.321 59.12C223.158 60.1467 220.738 60.66 218.061 60.66ZM249.26 60V25.295H237.765V21.5H265.375V25.295H253.88V60H249.26ZM271.016 60V21.5H275.636V60H271.016ZM301.289 60.66C297.513 60.66 294.194 59.835 291.334 58.185C288.511 56.4983 286.293 54.1517 284.679 51.145C283.103 48.1383 282.314 44.6733 282.314 40.75C282.314 36.8267 283.103 33.38 284.679 30.41C286.293 27.4033 288.511 25.0567 291.334 23.37C294.194 21.6833 297.513 20.84 301.289 20.84C305.103 20.84 308.421 21.6833 311.244 23.37C314.104 25.0567 316.323 27.4033 317.899 30.41C319.476 33.38 320.264 36.8267 320.264 40.75C320.264 44.6733 319.476 48.1383 317.899 51.145C316.323 54.1517 314.104 56.4983 311.244 58.185C308.421 59.835 305.103 60.66 301.289 60.66ZM301.289 56.59C304.113 56.59 306.588 55.9667 308.714 54.72C310.878 53.4367 312.546 51.6217 313.719 49.275C314.929 46.8917 315.534 44.05 315.534 40.75C315.534 37.45 314.929 34.6267 313.719 32.28C312.546 29.9333 310.878 28.1367 308.714 26.89C306.588 25.6067 304.113 24.965 301.289 24.965C298.466 24.965 295.973 25.6067 293.809 26.89C291.683 28.1367 290.014 29.9333 288.804 32.28C287.631 34.6267 287.044 37.45 287.044 40.75C287.044 44.05 287.631 46.8917 288.804 49.275C290.014 51.6217 291.683 53.4367 293.809 54.72C295.973 55.9667 298.466 56.59 301.289 56.59ZM326.929 60V21.5H331.549L352.064 52.355V21.5H356.684V60H352.064L331.549 29.145V60H326.929Z" fill="black"/>
</svg>
