<svg width="1217" height="89" viewBox="0 0 1217 89" fill="none" xmlns="http://www.w3.org/2000/svg">
<rect width="1217" height="89" fill="white"/>
<rect y="43" width="914" height="46" fill="#D4FFB2"/>
<path d="M48.54 65.225L62.345 17.98H66.91L53.105 65.225H48.54ZM63.4179 65.225L77.2229 17.98H81.7879L67.9829 65.225H63.4179ZM114.253 60.66C111.43 60.66 108.973 60.1467 106.883 59.12C104.793 58.0933 103.18 56.6633 102.043 54.83C100.906 52.9967 100.338 50.87 100.338 48.45H105.178C105.178 49.9533 105.526 51.3467 106.223 52.63C106.92 53.8767 107.928 54.885 109.248 55.655C110.605 56.3883 112.273 56.755 114.253 56.755C116.856 56.755 118.873 56.1317 120.303 54.885C121.733 53.6383 122.448 52.08 122.448 50.21C122.448 48.67 122.118 47.4417 121.458 46.525C120.798 45.5717 119.9 44.8017 118.763 44.215C117.663 43.6283 116.38 43.115 114.913 42.675C113.483 42.235 111.98 41.74 110.403 41.19C107.433 40.1633 105.233 38.8983 103.803 37.395C102.373 35.855 101.658 33.8567 101.658 31.4C101.621 29.3467 102.098 27.5317 103.088 25.955C104.078 24.3417 105.471 23.095 107.268 22.215C109.101 21.2983 111.265 20.84 113.758 20.84C116.215 20.84 118.341 21.2983 120.138 22.215C121.971 23.1317 123.383 24.3967 124.373 26.01C125.4 27.6233 125.931 29.4567 125.968 31.51H121.128C121.128 30.4467 120.853 29.4017 120.303 28.375C119.753 27.3117 118.91 26.45 117.773 25.79C116.673 25.13 115.28 24.8 113.593 24.8C111.503 24.7633 109.78 25.295 108.423 26.395C107.103 27.495 106.443 29.0167 106.443 30.96C106.443 32.61 106.901 33.875 107.818 34.755C108.771 35.635 110.091 36.3683 111.778 36.955C113.465 37.505 115.408 38.1467 117.608 38.88C119.441 39.54 121.091 40.31 122.558 41.19C124.025 42.07 125.161 43.2067 125.968 44.6C126.811 45.9933 127.233 47.7717 127.233 49.935C127.233 51.7683 126.756 53.51 125.803 55.16C124.85 56.7733 123.401 58.0933 121.458 59.12C119.551 60.1467 117.15 60.66 114.253 60.66ZM147.7 60.66C145.06 60.66 142.658 60.1467 140.495 59.12C138.368 58.0567 136.663 56.425 135.38 54.225C134.097 52.025 133.455 49.22 133.455 45.81V21.5H138.075V45.865C138.075 49.605 138.973 52.3183 140.77 54.005C142.567 55.6917 144.913 56.535 147.81 56.535C150.707 56.535 153.035 55.6917 154.795 54.005C156.555 52.3183 157.435 49.605 157.435 45.865V21.5H162.055V45.81C162.055 49.22 161.413 52.025 160.13 54.225C158.847 56.425 157.123 58.0567 154.96 59.12C152.797 60.1467 150.377 60.66 147.7 60.66ZM169.879 60V21.5H175.269L189.129 48.34L202.879 21.5H208.324V60H203.704V29.75L190.834 54.5H187.369L174.499 29.805V60H169.879ZM216.446 60V21.5H221.836L235.696 48.34L249.446 21.5H254.891V60H250.271V29.75L237.401 54.5H233.936L221.066 29.805V60H216.446ZM260.593 60L274.783 21.5H279.678L293.813 60H288.918L285.398 50.1H269.008L265.433 60H260.593ZM270.383 46.36H284.023L277.203 27.33L270.383 46.36ZM299.537 60V21.5H311.967C314.973 21.5 317.43 21.995 319.337 22.985C321.243 23.975 322.655 25.3317 323.572 27.055C324.488 28.7783 324.947 30.685 324.947 32.775C324.947 35.195 324.287 37.3767 322.967 39.32C321.683 41.2633 319.667 42.6383 316.917 43.445L325.332 60H319.887L312.077 44.105H311.747H304.157V60H299.537ZM304.157 40.475H311.637C314.607 40.475 316.77 39.76 318.127 38.33C319.483 36.9 320.162 35.0667 320.162 32.83C320.162 30.5567 319.483 28.76 318.127 27.44C316.807 26.0833 314.625 25.405 311.582 25.405H304.157V40.475ZM340.098 60V45.37L327.558 21.5H332.783L342.408 40.97L352.033 21.5H357.203L344.718 45.37V60H340.098Z" fill="black"/>
</svg>
